<mxfile host="app.diagrams.net" modified="2022-09-02T12:17:15.677Z" agent="5.0 (Windows NT 10.0; Win64; x64) AppleWebKit/537.36 (KHTML, like Gecko) Chrome/104.0.0.0 Safari/537.36" etag="iQxgfIwJzoO9-0isr6eN" version="20.2.8" type="github">
  <diagram id="atAbIjgkUXJymQfG_e_3" name="Page-1">
    <mxGraphModel dx="868" dy="1582" grid="1" gridSize="10" guides="1" tooltips="1" connect="1" arrows="1" fold="1" page="1" pageScale="1" pageWidth="850" pageHeight="1100" math="0" shadow="0">
      <root>
        <mxCell id="0" />
        <mxCell id="1" parent="0" />
        <mxCell id="DNjd_hqQomR7M6jAyOCP-28" value="" style="edgeStyle=orthogonalEdgeStyle;rounded=0;orthogonalLoop=1;jettySize=auto;html=1;startArrow=none;" parent="1" source="DNjd_hqQomR7M6jAyOCP-45" target="DNjd_hqQomR7M6jAyOCP-27" edge="1">
          <mxGeometry relative="1" as="geometry" />
        </mxCell>
        <mxCell id="DNjd_hqQomR7M6jAyOCP-59" value="" style="edgeStyle=orthogonalEdgeStyle;rounded=0;orthogonalLoop=1;jettySize=auto;html=1;entryX=0;entryY=0.5;entryDx=0;entryDy=0;entryPerimeter=0;" parent="1" source="DNjd_hqQomR7M6jAyOCP-1" target="DNjd_hqQomR7M6jAyOCP-27" edge="1">
          <mxGeometry relative="1" as="geometry">
            <mxPoint x="288.4000000000001" y="-423.5" as="targetPoint" />
          </mxGeometry>
        </mxCell>
        <mxCell id="DNjd_hqQomR7M6jAyOCP-1" value="NPI Gov Server&lt;br&gt;(https://download.cms.gov/nppes/NPI_Files.html)&amp;nbsp;" style="aspect=fixed;perimeter=ellipsePerimeter;html=1;align=center;shadow=0;dashed=0;spacingTop=3;image;image=img/lib/active_directory/database_server.svg;strokeColor=#000000;imageBackground=none;" parent="1" vertex="1">
          <mxGeometry x="169.99999999999997" y="-463.5" width="65.6" height="80" as="geometry" />
        </mxCell>
        <mxCell id="DNjd_hqQomR7M6jAyOCP-30" style="edgeStyle=orthogonalEdgeStyle;rounded=0;orthogonalLoop=1;jettySize=auto;html=1;" parent="1" source="DNjd_hqQomR7M6jAyOCP-8" target="DNjd_hqQomR7M6jAyOCP-12" edge="1">
          <mxGeometry relative="1" as="geometry">
            <mxPoint x="508.25" y="-310" as="targetPoint" />
          </mxGeometry>
        </mxCell>
        <mxCell id="DNjd_hqQomR7M6jAyOCP-8" value="S3 bucket&lt;br&gt;Surgical_NPI" style="outlineConnect=0;dashed=0;verticalLabelPosition=middle;verticalAlign=middle;align=left;html=1;shape=mxgraph.aws3.s3;fillColor=#E05243;gradientColor=none;strokeColor=#000000;labelPosition=right;" parent="1" vertex="1">
          <mxGeometry x="470" y="-470" width="76.5" height="93" as="geometry" />
        </mxCell>
        <mxCell id="DNjd_hqQomR7M6jAyOCP-12" value="AIIF Ingestion and Integration Jobs" style="points=[[0,0],[0.25,0],[0.5,0],[0.75,0],[1,0],[1,0.25],[1,0.5],[1,0.75],[1,1],[0.75,1],[0.5,1],[0.25,1],[0,1],[0,0.75],[0,0.5],[0,0.25]];outlineConnect=0;gradientColor=none;html=1;whiteSpace=wrap;fontSize=12;fontStyle=0;container=1;pointerEvents=0;collapsible=0;recursiveResize=0;shape=mxgraph.aws4.group;grIcon=mxgraph.aws4.group_aws_cloud_alt;strokeColor=#232F3E;fillColor=none;verticalAlign=top;align=left;spacingLeft=30;fontColor=#232F3E;dashed=0;" parent="1" vertex="1">
          <mxGeometry x="40" y="-280" width="640" height="330" as="geometry" />
        </mxCell>
        <mxCell id="DNjd_hqQomR7M6jAyOCP-39" value="" style="edgeStyle=orthogonalEdgeStyle;rounded=0;orthogonalLoop=1;jettySize=auto;html=1;" parent="DNjd_hqQomR7M6jAyOCP-12" source="DNjd_hqQomR7M6jAyOCP-15" target="DNjd_hqQomR7M6jAyOCP-38" edge="1">
          <mxGeometry relative="1" as="geometry" />
        </mxCell>
        <mxCell id="DNjd_hqQomR7M6jAyOCP-15" value="Redshift&lt;br&gt;Staging Layer" style="outlineConnect=0;dashed=0;verticalLabelPosition=bottom;verticalAlign=top;align=center;html=1;shape=mxgraph.aws3.redshift;fillColor=#2E73B8;gradientColor=none;strokeColor=#000000;" parent="DNjd_hqQomR7M6jAyOCP-12" vertex="1">
          <mxGeometry x="130" y="62.5" width="67.5" height="75" as="geometry" />
        </mxCell>
        <mxCell id="DNjd_hqQomR7M6jAyOCP-33" value="" style="edgeStyle=orthogonalEdgeStyle;rounded=0;orthogonalLoop=1;jettySize=auto;html=1;" parent="DNjd_hqQomR7M6jAyOCP-12" source="DNjd_hqQomR7M6jAyOCP-31" target="DNjd_hqQomR7M6jAyOCP-15" edge="1">
          <mxGeometry relative="1" as="geometry" />
        </mxCell>
        <mxCell id="DNjd_hqQomR7M6jAyOCP-31" value="AIIF Ingestion Job&lt;br&gt;S3 to STG" style="sketch=0;points=[[0,0,0],[0.25,0,0],[0.5,0,0],[0.75,0,0],[1,0,0],[0,1,0],[0.25,1,0],[0.5,1,0],[0.75,1,0],[1,1,0],[0,0.25,0],[0,0.5,0],[0,0.75,0],[1,0.25,0],[1,0.5,0],[1,0.75,0]];outlineConnect=0;fontColor=#232F3E;gradientColor=#F78E04;gradientDirection=north;fillColor=#D05C17;strokeColor=#ffffff;dashed=0;verticalLabelPosition=bottom;verticalAlign=top;align=center;html=1;fontSize=12;fontStyle=0;aspect=fixed;shape=mxgraph.aws4.resourceIcon;resIcon=mxgraph.aws4.compute;" parent="DNjd_hqQomR7M6jAyOCP-12" vertex="1">
          <mxGeometry x="40" y="75" width="50" height="50" as="geometry" />
        </mxCell>
        <mxCell id="DNjd_hqQomR7M6jAyOCP-44" value="" style="edgeStyle=orthogonalEdgeStyle;rounded=0;orthogonalLoop=1;jettySize=auto;html=1;" parent="DNjd_hqQomR7M6jAyOCP-12" source="DNjd_hqQomR7M6jAyOCP-32" target="DNjd_hqQomR7M6jAyOCP-43" edge="1">
          <mxGeometry relative="1" as="geometry" />
        </mxCell>
        <mxCell id="DNjd_hqQomR7M6jAyOCP-32" value="AIIF Integration Job&lt;br&gt;WHSE to RPT" style="sketch=0;points=[[0,0,0],[0.25,0,0],[0.5,0,0],[0.75,0,0],[1,0,0],[0,1,0],[0.25,1,0],[0.5,1,0],[0.75,1,0],[1,1,0],[0,0.25,0],[0,0.5,0],[0,0.75,0],[1,0.25,0],[1,0.5,0],[1,0.75,0]];outlineConnect=0;fontColor=#232F3E;gradientColor=#F78E04;gradientDirection=north;fillColor=#D05C17;strokeColor=#ffffff;dashed=0;verticalLabelPosition=bottom;verticalAlign=top;align=center;html=1;fontSize=12;fontStyle=0;aspect=fixed;shape=mxgraph.aws4.resourceIcon;resIcon=mxgraph.aws4.compute;" parent="DNjd_hqQomR7M6jAyOCP-12" vertex="1">
          <mxGeometry x="440" y="75" width="50" height="50" as="geometry" />
        </mxCell>
        <mxCell id="DNjd_hqQomR7M6jAyOCP-41" value="" style="edgeStyle=orthogonalEdgeStyle;rounded=0;orthogonalLoop=1;jettySize=auto;html=1;" parent="DNjd_hqQomR7M6jAyOCP-12" source="DNjd_hqQomR7M6jAyOCP-14" target="DNjd_hqQomR7M6jAyOCP-32" edge="1">
          <mxGeometry relative="1" as="geometry" />
        </mxCell>
        <mxCell id="DNjd_hqQomR7M6jAyOCP-56" value="" style="edgeStyle=orthogonalEdgeStyle;rounded=0;orthogonalLoop=1;jettySize=auto;html=1;" parent="DNjd_hqQomR7M6jAyOCP-12" source="DNjd_hqQomR7M6jAyOCP-14" target="DNjd_hqQomR7M6jAyOCP-48" edge="1">
          <mxGeometry relative="1" as="geometry" />
        </mxCell>
        <mxCell id="DNjd_hqQomR7M6jAyOCP-14" value="Redshift&amp;nbsp;&lt;br&gt;Warehouse Layer" style="outlineConnect=0;dashed=0;verticalLabelPosition=bottom;verticalAlign=top;align=center;html=1;shape=mxgraph.aws3.redshift;fillColor=#2E73B8;gradientColor=none;strokeColor=#000000;" parent="DNjd_hqQomR7M6jAyOCP-12" vertex="1">
          <mxGeometry x="336.25" y="62.5" width="67.5" height="75" as="geometry" />
        </mxCell>
        <mxCell id="DNjd_hqQomR7M6jAyOCP-40" value="" style="edgeStyle=orthogonalEdgeStyle;rounded=0;orthogonalLoop=1;jettySize=auto;html=1;" parent="DNjd_hqQomR7M6jAyOCP-12" source="DNjd_hqQomR7M6jAyOCP-38" target="DNjd_hqQomR7M6jAyOCP-14" edge="1">
          <mxGeometry relative="1" as="geometry" />
        </mxCell>
        <mxCell id="DNjd_hqQomR7M6jAyOCP-38" value="AIIF Integration Job&lt;br&gt;STG to WHSE" style="sketch=0;points=[[0,0,0],[0.25,0,0],[0.5,0,0],[0.75,0,0],[1,0,0],[0,1,0],[0.25,1,0],[0.5,1,0],[0.75,1,0],[1,1,0],[0,0.25,0],[0,0.5,0],[0,0.75,0],[1,0.25,0],[1,0.5,0],[1,0.75,0]];outlineConnect=0;fontColor=#232F3E;gradientColor=#F78E04;gradientDirection=north;fillColor=#D05C17;strokeColor=#ffffff;dashed=0;verticalLabelPosition=bottom;verticalAlign=top;align=center;html=1;fontSize=12;fontStyle=0;aspect=fixed;shape=mxgraph.aws4.resourceIcon;resIcon=mxgraph.aws4.compute;" parent="DNjd_hqQomR7M6jAyOCP-12" vertex="1">
          <mxGeometry x="250" y="75" width="50" height="50" as="geometry" />
        </mxCell>
        <mxCell id="DNjd_hqQomR7M6jAyOCP-43" value="Redshift&amp;nbsp;&lt;br&gt;Warehouse Layer&lt;br&gt;(Reporting Table)" style="outlineConnect=0;dashed=0;verticalLabelPosition=bottom;verticalAlign=top;align=center;html=1;shape=mxgraph.aws3.redshift;fillColor=#2E73B8;gradientColor=none;strokeColor=#000000;" parent="DNjd_hqQomR7M6jAyOCP-12" vertex="1">
          <mxGeometry x="520" y="62.5" width="67.5" height="75" as="geometry" />
        </mxCell>
        <mxCell id="DNjd_hqQomR7M6jAyOCP-51" value="" style="edgeStyle=orthogonalEdgeStyle;rounded=0;orthogonalLoop=1;jettySize=auto;html=1;" parent="DNjd_hqQomR7M6jAyOCP-12" source="DNjd_hqQomR7M6jAyOCP-48" target="DNjd_hqQomR7M6jAyOCP-50" edge="1">
          <mxGeometry relative="1" as="geometry" />
        </mxCell>
        <mxCell id="DNjd_hqQomR7M6jAyOCP-48" value="AIIF Unload Python Script&lt;br&gt;WHSE to S3" style="sketch=0;points=[[0,0,0],[0.25,0,0],[0.5,0,0],[0.75,0,0],[1,0,0],[0,1,0],[0.25,1,0],[0.5,1,0],[0.75,1,0],[1,1,0],[0,0.25,0],[0,0.5,0],[0,0.75,0],[1,0.25,0],[1,0.5,0],[1,0.75,0]];outlineConnect=0;fontColor=#232F3E;gradientColor=#F78E04;gradientDirection=north;fillColor=#D05C17;strokeColor=#ffffff;dashed=0;verticalLabelPosition=bottom;verticalAlign=top;align=center;html=1;fontSize=12;fontStyle=0;aspect=fixed;shape=mxgraph.aws4.resourceIcon;resIcon=mxgraph.aws4.compute;" parent="DNjd_hqQomR7M6jAyOCP-12" vertex="1">
          <mxGeometry x="345" y="210" width="50" height="50" as="geometry" />
        </mxCell>
        <mxCell id="DNjd_hqQomR7M6jAyOCP-50" value="S3 bucket&lt;br&gt;Surgical_NPI/JJCC" style="outlineConnect=0;dashed=0;verticalLabelPosition=bottom;verticalAlign=top;align=center;html=1;shape=mxgraph.aws3.s3;fillColor=#E05243;gradientColor=none;strokeColor=#000000;" parent="DNjd_hqQomR7M6jAyOCP-12" vertex="1">
          <mxGeometry x="515.5" y="188.5" width="76.5" height="93" as="geometry" />
        </mxCell>
        <mxCell id="DNjd_hqQomR7M6jAyOCP-29" value="" style="edgeStyle=orthogonalEdgeStyle;rounded=0;orthogonalLoop=1;jettySize=auto;html=1;" parent="1" source="DNjd_hqQomR7M6jAyOCP-27" target="DNjd_hqQomR7M6jAyOCP-8" edge="1">
          <mxGeometry relative="1" as="geometry" />
        </mxCell>
        <mxCell id="DNjd_hqQomR7M6jAyOCP-27" value="AIIF Weekly/Monthly &lt;br&gt;Extract Python Job" style="sketch=0;points=[[0,0,0],[0.25,0,0],[0.5,0,0],[0.75,0,0],[1,0,0],[0,1,0],[0.25,1,0],[0.5,1,0],[0.75,1,0],[1,1,0],[0,0.25,0],[0,0.5,0],[0,0.75,0],[1,0.25,0],[1,0.5,0],[1,0.75,0]];outlineConnect=0;fontColor=#232F3E;gradientColor=#F78E04;gradientDirection=north;fillColor=#D05C17;strokeColor=#ffffff;dashed=0;verticalLabelPosition=bottom;verticalAlign=top;align=center;html=1;fontSize=12;fontStyle=0;aspect=fixed;shape=mxgraph.aws4.resourceIcon;resIcon=mxgraph.aws4.compute;" parent="1" vertex="1">
          <mxGeometry x="330" y="-448.5" width="50" height="50" as="geometry" />
        </mxCell>
        <mxCell id="DNjd_hqQomR7M6jAyOCP-45" value="Weekly Job runs every Thursday 2:00 AM EST / Monthly Job is Adhoc" style="whiteSpace=wrap;html=1;strokeColor=#000000;" parent="1" vertex="1">
          <mxGeometry x="295" y="-523.5" width="120" height="60" as="geometry" />
        </mxCell>
        <mxCell id="tW3Sei_Uo-bAABJ0Ol1S-3" value="ARCHITECTURE DIAGRAM" style="shape=process;whiteSpace=wrap;html=1;backgroundOutline=1;strokeColor=#000000;labelBackgroundColor=none;" vertex="1" parent="1">
          <mxGeometry x="40" y="-630" width="640" height="60" as="geometry" />
        </mxCell>
      </root>
    </mxGraphModel>
  </diagram>
</mxfile>
